<svg width="280" height="280" viewBox="0 0 280 280" fill="none" xmlns="http://www.w3.org/2000/svg">
<path fill-rule="evenodd" clip-rule="evenodd" d="M196.615 52.3332C175.584 50.2646 157.748 53.3058 147.406 63.9422V214.396C162.191 206.199 180.913 205.087 198.212 206.801C216.871 208.622 235.672 213.902 250.188 219.305V66.1189C236.193 60.4071 216.127 54.2475 196.615 52.3332ZM80.7882 36.9729C101.344 34.9661 123.925 36.9112 139.5 49.9867C155.075 36.9112 177.656 34.9506 198.212 36.9729C222.152 39.3349 246.313 47.3469 261.367 54.0314C262.748 54.6447 263.919 55.6331 264.741 56.8785C265.563 58.124 266 59.574 266 61.0554V230.868C266 232.159 265.667 233.43 265.034 234.564C264.4 235.697 263.485 236.658 262.372 237.357C261.26 238.055 259.986 238.471 258.666 238.564C257.347 238.658 256.025 238.427 254.821 237.892C240.89 231.717 218.404 224.292 196.615 222.146C174.351 219.954 155.676 223.489 145.667 235.684C144.926 236.586 143.987 237.314 142.92 237.813C141.853 238.313 140.684 238.573 139.5 238.573C138.316 238.573 137.147 238.313 136.08 237.813C135.013 237.314 134.074 236.586 133.333 235.684C123.324 223.489 104.649 219.954 82.3694 222.146C60.5956 224.292 38.1261 231.717 24.1794 237.892C22.9753 238.427 21.6529 238.658 20.3336 238.564C19.0142 238.471 17.74 238.055 16.6276 237.357C15.5152 236.658 14.6002 235.697 13.9664 234.564C13.3326 233.43 13.0004 232.159 13 230.868V61.0554C13.0004 59.574 13.4375 58.124 14.259 56.8785C15.0805 55.6331 16.2518 54.6447 17.6331 54.0314C32.6866 47.3469 56.8481 39.3349 80.7882 36.9729ZM88.4318 118.852C90.5 120.375 91.6705 122.511 91.9432 125.261H106.091C106.023 121.102 104.909 117.443 102.75 114.284C100.591 111.125 97.5682 108.659 93.6818 106.886C89.8182 105.114 85.2955 104.227 80.1136 104.227C75.0227 104.227 70.4773 105.114 66.4773 106.886C62.4773 108.659 59.3295 111.125 57.0341 114.284C54.7614 117.443 53.6364 121.136 53.6591 125.364C53.6364 130.523 55.3295 134.625 58.7386 137.67C62.1477 140.716 66.7955 142.955 72.6818 144.386L80.2841 146.295C82.8295 146.909 84.9773 147.591 86.7273 148.341C88.5 149.091 89.8409 150 90.75 151.068C91.6818 152.136 92.1477 153.455 92.1477 155.023C92.1477 156.705 91.6364 158.193 90.6136 159.489C89.5909 160.784 88.1477 161.795 86.2841 162.523C84.4432 163.25 82.2727 163.614 79.7727 163.614C77.2273 163.614 74.9432 163.227 72.9205 162.455C70.9205 161.659 69.3182 160.489 68.1136 158.943C66.9318 157.375 66.2614 155.42 66.1023 153.08H51.8182C51.9318 158.102 53.1477 162.318 55.4659 165.727C57.8068 169.114 61.0568 171.67 65.2159 173.398C69.3977 175.125 74.3068 175.989 79.9432 175.989C85.625 175.989 90.4773 175.136 94.5 173.432C98.5455 171.705 101.636 169.284 103.773 166.17C105.932 163.034 107.023 159.33 107.045 155.057C107.023 152.148 106.489 149.568 105.443 147.318C104.42 145.068 102.977 143.114 101.114 141.455C99.25 139.795 97.0455 138.398 94.5 137.261C91.9545 136.125 89.1591 135.216 86.1136 134.534L79.8409 133.034C78.3182 132.693 76.8864 132.284 75.5455 131.807C74.2045 131.307 73.0227 130.727 72 130.068C70.9773 129.386 70.1705 128.58 69.5795 127.648C69.0114 126.716 68.75 125.625 68.7955 124.375C68.7955 122.875 69.2273 121.534 70.0909 120.352C70.9773 119.17 72.25 118.25 73.9091 117.591C75.5682 116.909 77.6023 116.568 80.0114 116.568C83.5568 116.568 86.3636 117.33 88.4318 118.852Z" fill="url(#paint0_linear_214_28)"/>
<path d="M180.682 105.182L197.557 158.227H198.205L215.114 105.182H231.477L207.409 175H188.386L164.284 105.182H180.682Z" fill="url(#paint1_linear_214_28)"/>
<defs>
<linearGradient id="paint0_linear_214_28" x1="139.5" y1="36.2917" x2="139.5" y2="238.585" gradientUnits="userSpaceOnUse">
<stop stop-color="#B14592"/>
<stop offset="1" stop-color="#F0904B"/>
</linearGradient>
<linearGradient id="paint1_linear_214_28" x1="198" y1="82" x2="198" y2="198" gradientUnits="userSpaceOnUse">
<stop stop-color="#B14592"/>
<stop offset="1" stop-color="#F0904B"/>
</linearGradient>
</defs>
</svg>
